<?xml version="1.0" encoding="UTF-8"?>
<svg id="_레이어_1" data-name="레이어_1" xmlns="http://www.w3.org/2000/svg" viewBox="0 0 600 600">
  <defs>
    <style>
      .cls-1 {
        fill: #e79723;
      }

      .cls-2 {
        fill: #682a7d;
      }
    </style>
  </defs>
  <path class="cls-2" d="M258.11,188.6v-83.78C110.98,104.81,0,173.84,0,265.35s110.98,160.54,258.11,160.54v-28.16c0-29.7-21.76-54.93-51.14-59.32-76.54-11.45-123.19-47.1-123.19-73.06,0-31.32,67.93-76.76,174.33-76.76Z"/>
  <path class="cls-2" d="M341.89,411.4v83.78c147.13,0,258.11-69.02,258.11-160.54s-110.98-160.54-258.11-160.54v28.16c0,29.7,21.76,54.93,51.14,59.32,76.54,11.45,123.19,47.1,123.19,73.06,0,31.32-67.93,76.76-174.33,76.76Z"/>
  <path class="cls-1" d="M302.06,217.36l7.71,21.39c8.56,23.75,27.25,42.44,51,51l21.39,7.71c1.93.69,1.93,3.43,0,4.12l-21.39,7.71c-23.75,8.56-42.44,27.25-51,51l-7.71,21.39c-.69,1.93-3.43,1.93-4.12,0l-7.71-21.39c-8.56-23.75-27.25-42.44-51-51l-21.39-7.71c-1.93-.69-1.93-3.43,0-4.12l21.39-7.71c23.75-8.56,42.44-27.25,51-51l7.71-21.39c.69-1.93,3.42-1.93,4.12,0Z"/>
</svg>